<?xml version="1.0" standalone="no"?>
<!DOCTYPE svg PUBLIC "-//W3C//DTD SVG 1.1//EN" "http://www.w3.org/Graphics/SVG/1.1/DTD/svg11.dtd" >
<svg xmlns="http://www.w3.org/2000/svg">
<metadata>
This is a custom SVG font generated by IcoMoon.
<iconset grid="16"></iconset>
</metadata>
<defs>
<font id="icomoon" horiz-adv-x="512" >
<font-face units-per-em="512" ascent="480" descent="-32" />
<missing-glyph horiz-adv-x="512" />
<glyph class="hidden" unicode="&#xf000;" d="M0,480L 512 -32L0 -32 z" horiz-adv-x="0" />
<glyph unicode="&#xe001;" d="M 287.935-32L 192-32 L 192,224 l-64,0 l0,88.225 l 64,0.029l-0.104,51.976C 191.896,436.206, 211.413,480, 296.195,480l 70.588,0 l0-88.242 l-44.115,0 
	c-33.016,0-34.603-12.328-34.603-35.342l-0.131-44.162l 79.345,0 l-9.352-88.225L 288,224L 287.935-32z" data-tags="facebook, social" />
<glyph unicode="&#xe002;" d="M 512,382.791c-18.838-8.354-39.082-14.001-60.33-16.54c 21.686,13, 38.343,33.585, 46.186,58.115
	c-20.298-12.039-42.778-20.78-66.705-25.49c-19.16,20.415-46.461,33.17-76.673,33.17c-58.011,0-105.044-47.029-105.044-105.039
	c0-8.233, 0.929-16.25, 2.72-23.939c-87.3,4.382-164.701,46.2-216.509,109.753c-9.042-15.514-14.223-33.558-14.223-52.809
	c0-36.444, 18.544-68.596, 46.73-87.433c-17.219,0.546-33.416,5.271-47.577,13.139c-0.010-0.438-0.010-0.878-0.010-1.321
	c0-50.894, 36.209-93.348, 84.261-103c-8.813-2.4-18.094-3.686-27.674-3.686c-6.769,0-13.349,0.66-19.764,1.886
	c 13.368-41.73, 52.16-72.103, 98.126-72.948c-35.95-28.175-81.243-44.967-130.458-44.967c-8.479,0-16.84,0.497-25.058,1.47
	c 46.486-29.805, 101.701-47.197, 161.021-47.197c 193.211,0, 298.868,160.062, 298.868,298.872c0,4.554-0.103,9.084-0.305,13.59
	C 480.11,343.227, 497.918,361.727, 512,382.791z" data-tags="twitter, tweet, social" />
<glyph unicode="&#xe003;" d="M 512,176L 416,272L 416,416L 352,416L 352,336L 256,432L0,176L0,160L 64,160L 64,0L 224,0L 224,96L 288,96L 288,0L 448,0L 448,160L 512,160 z" data-tags="home, house, building" />
<glyph unicode="&#xe004;" d="M 512,320L 256,448L0,320l 256-128L 512,320z M 256,405.515L 427.029,320L 256,234.485L 84.971,320L 256,405.515zM 460.722,249.639 L 512,224 L 256,96 L 0,224 L 51.278,249.639 L 256,147.278 ZM 460.722,153.639 L 512,128 L 256,0 L 0,128 L 51.278,153.639 L 256,51.278 Z" data-tags="stack, layers" />
<glyph unicode="&#xe005;" d="M 256,480C 114.615,480,0,365.385,0,224s 114.615-256, 256-256s 256,114.615, 256,256S 397.385,480, 256,480z M 408.028,71.972
	c-19.759-19.758-42.756-35.266-68.354-46.093c-6.503-2.75-13.107-5.164-19.8-7.246L 319.874,57 c0,20.167-6.917,35-20.75,44.5
	c 8.667,0.833, 16.625,2, 23.875,3.5s 14.917,3.667, 23,6.5s 15.333,6.208, 21.75,10.125s 12.583,9, 18.5,15.25s 10.875,13.333, 14.875,21.25
	s 7.167,17.417, 9.5,28.5s 3.5,23.292, 3.5,36.625c0,25.833-8.417,47.833-25.25,66c 7.667,20, 6.833,41.75-2.5,65.25l-6.25,0.75
	c-4.333,0.5-12.125-1.333-23.375-5.5s-23.875-11-37.875-20.5c-19.833,5.5-40.417,8.25-61.75,8.25c-21.5,0-42-2.75-61.5-8.25
	c-8.833,6-17.208,10.958-25.125,14.875c-7.917,3.917-14.25,6.583-19,8s-9.167,2.292-13.25,2.625s-6.708,0.417-7.875,0.25
	s-2-0.333-2.5-0.5c-9.333-23.667-10.167-45.417-2.5-65.25c-16.833-18.167-25.25-40.167-25.25-66c0-13.333, 1.167-25.542, 3.5-36.625
	s 5.5-20.583, 9.5-28.5s 8.958-15, 14.875-21.25s 12.083-11.333, 18.5-15.25s 13.667-7.292, 21.75-10.125s 15.75-5, 23-6.5
	s 15.208-2.667, 23.875-3.5c-13.667-9.333-20.5-24.167-20.5-44.5l0-39.115 c-7.549,2.247-14.99,4.902-22.3,7.994
	c-25.597,10.827-48.594,26.335-68.353,46.093c-19.758,19.759-35.267,42.756-46.093,68.354C 46.679,166.805, 41,194.957, 41,224
	s 5.679,57.195, 16.879,83.675c 10.827,25.597, 26.335,48.594, 46.093,68.353s 42.756,35.267, 68.353,46.093
	C 198.805,433.321, 226.957,439, 256,439s 57.195-5.679, 83.675-16.879c 25.598-10.827, 48.595-26.335, 68.354-46.093
	c 19.758-19.758, 35.266-42.756, 46.093-68.353C 465.321,281.195, 471,253.043, 471,224s-5.679-57.195-16.879-83.675
	C 443.294,114.728, 427.786,91.73, 408.028,71.972z" data-tags="github, octacat, social" />
<glyph unicode="&#xe006;" d="M 426,480L 86,480 C 38.7,480,0,441.3,0,394l0-340 c0-47.3, 38.7-86, 86-86l 340,0 c 47.3,0, 86,38.7, 86,86L 512,394 C 512,441.3, 473.3,480, 426,480z M 192,64l-64,0 
	L 128,288 l 64,0 L 192,64 z M 160,320c-17.673,0-32,14.327-32,32s 14.327,32, 32,32s 32-14.327, 32-32S 177.673,320, 160,320z M 416,64l-64,0 L 352,192 
	c0,17.673-14.327,32-32,32s-32-14.327-32-32l0-128 l-64,0 L 224,288 l 64,0 l0-39.736 C 301.199,266.396, 321.376,288, 344,288c 39.765,0, 72-35.817, 72-80
	L 416,64 z" data-tags="linkedin, social" />
<glyph unicode="&#xe007;" d="M 311.413,128.632c-11.055,1.759-11.307,32.157-11.307,32.157s 32.484,32.158, 39.564,75.401
	c 19.045,0, 30.809,45.973, 11.761,62.148C 352.226,315.365, 375.911,432, 256,432c-119.911,0-96.225-116.635-95.432-133.662
	c-19.047-16.175-7.285-62.148, 11.761-62.148c 7.079-43.243, 39.564-75.401, 39.564-75.401s-0.252-30.398-11.307-32.157
	C 164.976,122.966, 32,64.315, 32,0l 224,0 l 224,0 C 480,64.315, 347.024,122.966, 311.413,128.632z" data-tags="user, profile, avatar, person, talk, member" />
<glyph unicode="&#xe008;" d="M 466.895,174.875c-26.863,46.527-10.708,106.152, 36.076,133.244l-50.313,87.146c-14.375-8.427-31.088-13.259-48.923-13.259
	c-53.768,0-97.354,43.873-97.354,97.995L 205.752,480.001 c 0.133-16.705-4.037-33.641-12.979-49.126
	c-26.862-46.528-86.578-62.351-133.431-35.379L 9.030,308.35c 14.485-8.236, 27.025-20.294, 35.943-35.739
	c 26.819-46.454, 10.756-105.96-35.854-133.112l 50.313-87.146c 14.325,8.348, 30.958,13.127, 48.7,13.127
	c 53.598,0, 97.072-43.596, 97.35-97.479l 100.627,0 c-0.043,16.537, 4.136,33.285, 12.983,48.609
	c 26.818,46.453, 86.388,62.297, 133.207,35.506l 50.313,87.145C 488.222,147.494, 475.766,159.51, 466.895,174.875z M 256,120.334
	c-57.254,0-103.668,46.412-103.668,103.667c0,57.254, 46.413,103.667, 103.668,103.667c 57.254,0, 103.666-46.413, 103.666-103.667
	C 359.665,166.746, 313.254,120.334, 256,120.334z" data-tags="cog, preferences, settings, gear, generate, control, options" />
<glyph unicode="&#xe009;" d="M 432,416L 192,176L 80,288L0,208L 192,16L 512,336 z" data-tags="checkmark, tick, correct, accept, ok" />
<glyph unicode="&#xe00a;" d="M 256,480C 114.615,480,0,365.385,0,224s 114.615-256, 256-256s 256,114.615, 256,256S 397.385,480, 256,480z M 256,16
		c-114.875,0-208,93.125-208,208S 141.125,432, 256,432s 208-93.125, 208-208S 370.875,16, 256,16zM 224,352L 288,352L 288,288L 224,288zM 320,96L 192,96L 192,128L 224,128L 224,224L 192,224L 192,256L 288,256L 288,128L 320,128 z" data-tags="info, information" />
<glyph unicode="&#xe00b;" d="M 256,480C 114.615,480,0,365.385,0,224s 114.615-256, 256-256s 256,114.615, 256,256S 397.385,480, 256,480z M 224,384l 64,0 l0-64 l-64,0 L 224,384 z
	 M 320,64L 192,64 l0,32 l 32,0 L 224,224 l-32,0 l0,32 l 96,0 l0-160 l 32,0 L 320,64 z" data-tags="info, information" />
<glyph unicode="&#xe00c;" d="M 496,288L 320,288 L 320,464 c0,8.836-7.164,16-16,16l-96,0 c-8.836,0-16-7.164-16-16l0-176 L 16,288 c-8.836,0-16-7.164-16-16l0-96 
	c0-8.836, 7.164-16, 16-16l 176,0 l0-176 c0-8.836, 7.164-16, 16-16l 96,0 c 8.836,0, 16,7.164, 16,16L 320,160 l 176,0 c 8.836,0, 16,7.164, 16,16l0,96 
	C 512,280.836, 504.836,288, 496,288z" data-tags="plus, add, sum" />
<glyph unicode="&#xe00d;" d="M0,272l0-96 c0-8.836, 7.164-16, 16-16l 480,0 c 8.836,0, 16,7.164, 16,16l0,96 c0,8.836-7.164,16-16,16L 16,288 C 7.164,288,0,280.836,0,272z" data-tags="minus, minimize, subtract" />
<glyph unicode="&#xe00e;" d="M 144,352L 16,224l 128-128l 64,0 L 80,224l 128,128L 144,352 z M 368,352l-64,0 l 128-128L 304,96l 64,0 l 128,128L 368,352z" data-tags="embed" />
<glyph unicode="&#xe00f;" d="M 476.698,442.679l-2.014,2.021c-47.074,47.067-124.097,47.067-171.163,0L 194.468,335.632
		c-47.067-47.066-47.067-124.088,0-171.155l 2.013-2.013c 3.916-3.924, 8.073-7.462, 12.368-10.729l 39.924,39.925
		c-4.651,2.747-9.063,6.036-13.058,10.030l-2.021,2.021c-25.557,25.549-25.557,67.136,0,92.695L 342.758,405.462
		c 25.558,25.559, 67.137,25.559, 92.693,0l 2.021-2.012c 25.55-25.558, 25.55-67.146,0-92.695l-49.343-49.343
		c 8.566-21.154, 12.624-43.7, 12.269-66.193l 76.302,76.302C 523.767,318.589, 523.767,395.61, 476.698,442.679zM 315.521,285.533c-3.916,3.916-8.073,7.461-12.368,10.72l-39.924-39.916c 4.652-2.748, 9.063-6.037, 13.058-10.031l 2.021-2.020
		c 25.558-25.558, 25.558-67.136,0-92.694L 169.243,42.525c-25.559-25.551-67.138-25.551-92.694,0l-2.021,2.021
		c-25.549,25.56-25.549,67.138,0,92.694l 49.344,49.343c-8.567,21.153-12.623,43.701-12.269,66.193l-76.301-76.299
		c-47.068-47.066-47.068-124.089,0-171.162l 2.013-2.016c 47.076-47.064, 124.096-47.064, 171.164,0l 109.055,109.059
		c 47.067,47.066, 47.067,124.097,0,171.163L 315.521,285.533z" data-tags="link, chain, url, uri, anchor" />
<glyph unicode="&#xe010;" d="M 152,176c0-57.438, 46.562-104, 104-104s 104,46.562, 104,104s-46.562,104-104,104S 152,233.438, 152,176z M 480,352L 368,352 
	c-8,32-16,64-48,64L 192,416 c-32,0-40-32-48-64L 32,352 c-17.6,0-32-14.4-32-32l0-288 c0-17.6, 14.4-32, 32-32l 448,0 c 17.6,0, 32,14.4, 32,32L 512,320 
	C 512,337.6, 497.6,352, 480,352z M 256,34c-78.425,0-142,63.574-142,142c0,78.425, 63.575,142, 142,142c 78.426,0, 142-63.575, 142-142
	C 398,97.574, 334.427,34, 256,34z M 480,256l-64,0 l0,32 l 64,0 L 480,256 z" data-tags="camera, photo, picture, image" />
<glyph unicode="&#xe011;" d="M 32,384L 480,384L 480,288L 32,288zM 32,256L 480,256L 480,160L 32,160zM 32,128L 480,128L 480,32L 32,32z" data-tags="menu, list, items, lines, options" />
<glyph unicode="&#xe012;" d="M 505.087,22.125L 230.77,271.854l 12.767,12.799c 10.447,10.477, 16.094,24.015, 16.959,37.805
	c 0.501,0.225, 1.001,0.456, 1.479,0.721l 51.495,32.201c 6.967,8.196, 6.458,21.134-1.142,28.751L 222.768,473.935
	c-7.595,7.617-20.499,8.131-28.672,1.142l-32.118-51.634c-0.263-0.483-0.495-0.983-0.72-1.487
	c-13.751-0.868-27.25-6.528-37.699-17.003l-48.714-48.851c-10.449-10.478-16.092-24.013-16.959-37.802
	c-0.502-0.225-1.002-0.458-1.482-0.723L 4.911,285.374c-6.971-8.195-6.458-21.132, 1.138-28.748l 89.56-89.802
	c 7.597-7.619, 20.498-8.131, 28.675-1.143l 32.114,51.635c 0.264,0.479, 0.494,0.98, 0.721,1.483c 13.751,0.869, 27.252,6.525, 37.699,17.002
	l 14.146,14.186l 249.061-275.057c 7.218-7.972, 18.35-9.259, 24.737-2.856l 25.178,25.244
	C 514.322,3.722, 513.038,14.884, 505.087,22.125z" data-tags="hammer, rules, justice, legal" />
<glyph unicode="&#xe013;" d="M 482.768,359.328l-5.024-5.024l-91.616,91.664l 5.008,5.008c0,0, 21.936,29.008, 53.136,29.008
	c 13.744,0, 29.312-5.648, 45.584-21.92C 543.52,404.4, 482.768,359.328, 482.768,359.328z M 447.664,324.208L 135.744,12.144l0-0.016 l-0.032-0.016L 135.68,12.112 L0-32
	l 44.096,135.744l0,0 l0,0.016l0,0.048l 0.032,0 L 356.064,415.888l 4.032-4.048 M 44.16,12.176l 67.792,19.504l-46.304,49.312L 44.16,12.176z" data-tags="pencil, write, blog, save, note" />
<glyph unicode="&#xe014;" d="M 181.861,118.974l 20.649,28.908l-22.627,22.628l-28.909-20.648c-5.361,2.997-11.102,5.387-17.133,7.096L 128,192L 96,192 
		l-5.84-35.043c-6.031-1.709-11.772-4.099-17.133-7.096L 44.118,170.51L 21.49,147.882l 20.649-28.908
		c-2.997-5.36-5.387-11.103-7.096-17.133L0,96l0-32 l 35.043-5.841c 1.709-6.030, 4.099-11.772, 7.096-17.133L 21.49,12.118l 22.627-22.628
		l 28.909,20.648c 5.361-2.997, 11.102-5.387, 17.133-7.096L 96-32l 32,0 l 5.84,35.043c 6.031,1.709, 11.772,4.099, 17.133,7.096l 28.909-20.648
		l 22.627,22.628l-20.649,28.908c 2.997,5.36, 5.387,11.103, 7.096,17.133L 224,64l0,32 l-35.043,5.841
		C 187.248,107.871, 184.858,113.613, 181.861,118.974z M 112,48c-17.674,0-32,14.327-32,32s 14.326,32, 32,32s 32-14.327, 32-32
		S 129.674,48, 112,48zM 512,288l0,32 l-33.691,6.125c-0.621,4.023-1.416,7.989-2.362,11.895l 28.779,18.55L 492.48,386.134l-33.472-7.234
		c-2.107,3.455-4.363,6.81-6.746,10.065l 19.503,28.171l-22.628,22.627l-28.171-19.503c-3.256,2.383-6.61,4.638-10.065,6.747
		l 7.234,33.472L 388.571,472.726l-18.55-28.779c-3.906,0.946-7.872,1.741-11.895,2.362L 352,480l-32,0 l-6.126-33.691
		c-4.023-0.621-7.988-1.416-11.895-2.362L 283.43,472.726L 253.866,460.48l 7.234-33.472c-3.455-2.108-6.81-4.364-10.065-6.747
		l-28.171,19.503l-22.627-22.627l 19.503-28.171c-2.383-3.255-4.639-6.61-6.747-10.065l-33.472,7.234l-12.246-29.564l 28.779-18.55
		c-0.946-3.906-1.741-7.871-2.362-11.895L 160,320l0-32 l 33.691-6.125c 0.621-4.023, 1.416-7.989, 2.362-11.895l-28.779-18.55
		l 12.246-29.564l 33.472,7.234c 2.108-3.455, 4.364-6.809, 6.747-10.065l-19.503-28.171l 22.627-22.628l 28.171,19.503
		c 3.255-2.383, 6.61-4.638, 10.065-6.746l-7.234-33.472l 29.564-12.246l 18.551,28.779c 3.905-0.946, 7.871-1.741, 11.894-2.362L 320,128l 32,0 
		l 6.126,33.691c 4.022,0.621, 7.988,1.416, 11.895,2.362l 18.55-28.779l 29.564,12.246l-7.234,33.472
		c 3.455,2.108, 6.81,4.363, 10.065,6.746l 28.171-19.503l 22.628,22.628l-19.503,28.171c 2.383,3.256, 4.638,6.61, 6.746,10.065
		l 33.472-7.234l 12.246,29.565l-28.779,18.55c 0.946,3.906, 1.741,7.871, 2.362,11.895L 512,288z M 336,234.4
		c-38.439,0-69.6,31.161-69.6,69.6c0,38.439, 31.16,69.6, 69.6,69.6s 69.6-31.161, 69.6-69.6C 405.6,265.561, 374.44,234.4, 336,234.4z" data-tags="cogs, settings, gears, generate, control, options" />
<glyph unicode="&#xe015;" d="M 255.936,232.688L 512,353.312L 512,416L0,416L0,353.504 		zM 256.064,161.936L0,282.88L0,32L 512,32L 512,282.496 		z" data-tags="mail, contact, email" />
<glyph unicode="&#xe016;" d="M 464,416L 48,416 C 21.488,416,0,394.512,0,368l0-288 c0-26.496, 21.488-48, 48-48l 416,0 c 26.512,0, 48,21.504, 48,48L 512,368 C 512,394.512, 490.512,416, 464,416z M 43.856,64.16
	L 32.16,75.872l 131.984,131.968l 11.696-11.712L 43.856,64.16z M 468.144,64.16l-131.984,131.968l 11.696,11.712l 131.984-131.968L 468.144,64.16z M 272,170.8
	L 272,160 l-32,0 l0,10.8 L 32.048,363.6l 20.352,20.352L 256,195.184L 459.6,383.952l 20.352-20.352L 272,170.8z" data-tags="envelope, mail, email, contact" />
<glyph unicode="&#xe017;" d="M 170.727,171.613l 14.801,0 l0-4.425 l-19.073,0 L 166.454,273.997 l 4.272,0 L 170.727,171.613 z M 192.546,281.321L 192.546,174.513 l-19.073,0 L 173.474,281.321 
		L 192.546,281.321 zM 223.367,171.613l-4.272-4.272l-17.852,0 l 21.819,106.808l 3.51,3.357l-21.819-105.894L 223.367,171.613 z M 248.391,199.384
		l-18.462,0 l-3.661-24.871l-18.005,0 l 21.972,106.808l 19.073,0 l 21.972-106.808L 252.205,174.513 L 248.391,199.384z M 268.379,171.613l-4.272-4.272l-19.073,0 
		l-3.661,24.719l-9.613,0 l 0.61,4.272L 246.102,196.332 l 3.51-24.719L 268.379,171.613 z M 245.339,214.643l-5.799,38.298l-0.457,0 l-5.951-38.298L 245.339,214.643 z
		 M 239.236,235.545l 2.747-18.309l-5.34,0 l-0.152,1.068L 239.236,235.545zM 284.401,171.461l 14.648,0 l0-4.273 l-19.073,0 L 279.977,273.997 l 4.426,0 L 284.402,171.461 z M 363.286,281.321L 363.286,174.513 l-19.073,0 l0,65.916 
		L 331.855,174.513l-13.275,0 l-12.054,65.916l-0.305,0 l0-65.916 L 287.148,174.513 L 287.148,281.321 l 25.787,0 l 12.206-63.932l 0.305,0 l 12.206,63.932L 363.286,281.321 z
		 M 316.291,171.461l 9.308,0 l-0.763-4.273l-13.426,0 l-2.441,13.275l0,30.364 L 316.291,171.461z M 325.294,231.275l-1.526,7.629l 6.714,35.094
		l 2.899,0 L 325.294,231.275z M 341.467,171.461l 14.801,0 l0-4.273 l-19.073,0 L 337.195,187.33 l 4.272,23.498L 341.467,171.461 zM 379.766,171.461l 14.801,0 l0-4.273 l-19.073,0 L 375.494,273.997 l 4.273,0 L 379.767,171.461 z M 422.642,174.513l-19.531,40.892l-0.916,0 
		l-0.61-0.762l0-40.13 l-19.073,0 L 382.513,281.321 l 19.073,0 l0-38.145 l 0.458,0 l 18.614,38.145l 18.157,0 l-25.634-47.606l 31.432-59.203L 422.642,174.512 z
		 M 435.154,171.461l 2.288-4.273l-21.819,0 l-11.138,23.192l0,15.563 l 16.326-34.484L 435.154,171.46 zM 455.601,171.613l 14.648,0 l0-4.425 l-18.921,0 L 451.328,273.997 l 4.272,0 L 455.601,171.613 z M 504.274,281.321l0-15.411 l-26.854,0 l0-26.092 
		l 19.225,0 l0-15.258 l-19.225,0 l0-50.047 l-19.073,0 L 458.348,281.321 l 19.073,0 L 504.274,281.321 z M 480.166,263.163l 17.090,0 l0-4.426 l-17.090,0 L 480.166,263.163 z M 480.166,221.662
		l 9.308,0 l0-4.273 l-9.308,0 L 480.166,221.662 zM 118.628,329.124l-1.825-3.55l 16.54-8.505l-1.768-3.44l-16.541,8.505l-1.811-3.524l-2.725,1.401
		l 5.406,10.513L 118.628,329.124zM 127.038,349.071l 18.355-11.497l-2.053-3.278l-8.627,5.404l-2.168-3.461l 8.628-5.404l-2.054-3.278
		l-18.355,11.498l 2.052,3.278l 7.133-4.468l 2.168,3.462l-7.132,4.468L 127.038,349.071zM 137.814,358.954l 4.265-3.184l 2.351,3.149l 2.479-1.851l-2.35-3.149l 5.653-4.221l 3.535,4.735l 2.48-1.851
		l-5.85-7.835l-17.355,12.957l 5.589,7.488l 2.48-1.851L 137.814,358.954zM 168.285,397.574l 12.15-18.455l-2.682-2.657l-10.821,7.268l 7.173-10.885l-2.682-2.658l-18.367,12.29
		l 2.703,2.68l 13.087-9.641l 0.065,0.065l-9.504,13.192l 2.68,2.658l 13.087-9.642l 0.065,0.066l-9.504,13.192L 168.285,397.574zM 186.957,407.14l 7.878-9.706c 1.403-1.73, 1.735-4.889-1.268-7.325c-3.315-2.692-6.171-1.581-7.575,0.15
		l-7.878,9.706c-1.403,1.73-1.866,4.704, 1.451,7.395C 182.568,409.796, 185.551,408.87, 186.957,407.14z M 183.972,404.678
		c-0.41,0.504-1.632,1.028-2.495,0.326c-1.058-0.859-0.749-2.122-0.379-2.579l 7.859-9.682c 0.447-0.552, 1.601-1.091, 2.659-0.233
		c 0.866,0.702, 0.586,2.030, 0.176,2.534L 183.972,404.678zM 211.848,403.867l-7.943,5.156c-0.435-0.295-0.897-0.608-1.024-0.694l 4.895-7.221l-3.174-2.153
		l-12.155,17.927l 5.353,3.63c 3.072,2.083, 6.061,0.82, 8.004-2.048c 1.807-2.664, 1.817-5.161, 0.801-6.97l 8.573-5.364L 211.848,403.867z
		 M 201.040,411.043l 1.025,0.694c 2.073,1.406, 2.463,2.045, 0.693,4.656c-0.972,1.434-2.069,2.335-3.324,1.484l-2.074-1.406
		L 201.040,411.043zM 221.245,419.359l-0.162-0.090l 0.024-0.234l 3.949-7.082l-3.379-1.885l-10.551,18.921l 3.379,1.885l 3.768-6.758
		l 0.053,0.030l-0.443,8.611l 3.189,1.779l 0.151-11.008l 11.43-7.34l-3.893-2.17L 221.245,419.359zM 255.162,431.721l-3.489-1.361l 1.143-4.969l-3.402-1.328l-3.727,21.803l 3.604,1.406l 12.031-18.562
		l-3.605-1.406L 255.162,431.721z M 253.449,434.409l-3.92,6.809l-0.088-0.034l 1.701-7.677L 253.449,434.409zM 273.928,455.322l 6.098-20.791l-3.711-1.089l-7.146,10.839l-0.059-0.017l 3.493-11.909l-3.712-1.089
		l-6.098,20.79l 3.92,1.15l 6.826-10.513l 0.059,0.018L 270.216,454.234L 273.928,455.322zM 297.019,454.102l 1.824-9.101c 0.651-3.246-0.242-6.359-3.518-7.016l-6.857-1.374l-4.255,21.236l 6.856,1.374
		c 2.154,0.431, 4.243-0.696, 5.135-2.632C 296.55,455.808, 296.843,454.983, 297.019,454.102z M 293.929,440.861
		c 1.516,0.305, 1.644,1.718, 1.303,3.417l-1.823,9.102c-0.341,1.699-1.003,2.954-2.52,2.65l-2.275-0.455l 3.040-15.168
		L 293.929,440.861zM 326.542,457.353l-0.117,1.699c-0.044,0.648-0.768,1.716-1.88,1.639c-1.358-0.093-1.869-1.244-1.824-1.893
		l 0.854-12.473c 0.045-0.648, 0.706-1.72, 2.065-1.627c 1.112,0.077, 1.684,1.231, 1.638,1.881l-0.116,1.699l 3.889,0.267l 0.117-1.699
		c 0.151-2.192-1.427-4.967-5.317-5.234c-4.261-0.292-6.048,2.254-6.196,4.415l-0.857,12.503c-0.151,2.192, 1.273,4.957, 5.533,5.249
		c 3.89,0.267, 5.832-2.268, 5.983-4.461l 0.116-1.698L 326.542,457.353zM 348.526,442.234l-3.496,8.802c-0.526,0.011-1.083,0.023-1.237,0.026l-0.184-8.725l-3.836,0.081l 0.457,21.657
		l 6.465-0.137c 3.712-0.078, 5.419-2.839, 5.345-6.303c-0.068-3.218-1.503-5.262-3.38-6.15l 3.888-9.337L 348.526,442.234z
		 M 343.862,454.341l 1.236-0.026c 2.506-0.053, 3.193,0.243, 3.26,3.398c 0.036,1.732-0.338,3.102-1.853,3.134l-2.507,0.053
		L 343.862,454.341zM 368.512,445.771l-3.723,0.409l-1.288-4.933l-3.631,0.399l 6.796,21.050l 3.846-0.422l 2.063-22.024l-3.846,0.422
		L 368.512,445.771z M 368.237,448.947l-0.32,7.85l-0.093,0.010l-2.048-7.591L 368.237,448.947zM 387.805,456.469l-1.005-5.227l 3.828-0.737l-0.585-3.038l-3.828,0.737l-1.917-9.966l-3.797,0.731l 4.092,21.269
		l 9.145-1.759l-0.584-3.038L 387.805,456.469zM 413.107,450.379l-3.849,1.059l-4.933-17.932l-3.729,1.027l 4.933,17.932l-3.818,1.051l 0.812,2.954
		l 11.398-3.137L 413.107,450.379zM 443.752,437.293l-4.895-11.501c-0.873-2.049-3.509-3.818-7.067-2.304c-3.928,1.673-4.28,4.714-3.408,6.764
		l 4.895,11.5c 0.874,2.050, 3.286,3.847, 7.214,2.174C 444.049,442.412, 444.624,439.343, 443.752,437.293z M 440.181,438.78
		c 0.256,0.597, 0.146,1.922-0.878,2.358c-1.253,0.533-2.226-0.33-2.456-0.872l-4.884-11.471c-0.279-0.655-0.214-1.927, 1.039-2.459
		c 1.024-0.436, 2.067,0.431, 2.321,1.029L 440.181,438.78zM 456.822,432.48l-2.469-4.715l 3.455-1.809l-1.435-2.742l-3.454,1.809l-4.709-8.991l-3.426,1.794
		l 10.047,19.189l 8.252-4.32l-1.435-2.742L 456.822,432.48zM 478.041,407.735l-0.151,0.108l-0.2-0.125l-4.66-6.634l-3.166,2.223l 12.45,17.726l 3.165-2.223
		l-4.447-6.331l 0.052-0.036l 7.561,4.142l 2.989-2.098l-9.847-4.92l-1.641-13.48l-3.646,2.561L 478.041,407.735zM 500.975,403.208l-3.401-4.095l 3.025-2.511l-1.977-2.38l-3.024,2.51l-4.506-5.428l 4.546-3.776l-1.977-2.381
		l-7.523,6.247l 13.839,16.667l 7.19-5.97l-1.977-2.382L 500.975,403.208zM 505.495,374.062l-2.938,2.883l 11.744,18.826l 2.961-2.903l-9.259-13.375l 0.045-0.044l 13.236,9.473
		l 2.939-2.882L 505.495,374.062zM 517.024,361.702l-2.558,2.9l 16.24,14.328l 2.558-2.9L 517.024,361.702zM 546.967,358.921l-17.212-13.148l-2.348,3.074l 7.551,10.556l-0.038,0.050l-9.86-7.532l-2.348,3.073
		l 17.213,13.148l 2.479-3.246l-7.362-10.14l 0.038-0.049l 9.54,7.288L 546.967,358.921zM 558.99,334.665l-4.614-2.655l 1.945-3.381l-2.682-1.543l-1.946,3.38l-8.799-5.061l-1.929,3.353
		l 18.779,10.802l 4.644-8.075l-2.682-1.543L 558.99,334.665zM 556.174,310.971l-1.631,3.371l-4.865-1.527l-1.591,3.288l 21.445,5.421l 1.685-3.482l-17.563-13.445
		l-1.684,3.483L 556.174,310.971z M 558.718,312.889l 6.481,4.442l-0.041,0.083l-7.517-2.295L 558.718,312.889zM 558.678,292.317l-1.369,3.486l 7.835,3.075l 10.677,9.044l 1.379-3.513l-8.775-6.269l 0.022-0.058
		l 10.651,1.488l 1.391-3.543l-13.979-0.633L 558.678,292.317zM 141.578,84.137l0,21.873 l-6.086,0 l0-21.873 l-4.364,0 l0,47.249 l 4.364,0 l0-21.069 l 6.086,0 l0,21.069 l 4.364,0 l0-47.249 L 141.578,84.137 zM 162.129,84.137l-1.033,7.923l-7.061,0 l-1.033-7.923l-4.248,0 l 6.487,47.249l 5.11,0 l 6.142-47.249L 162.129,84.137 z
		 M 160.58,96.078c-0.976,8.095-2.009,16.017-2.927,24.227c-0.976-8.21-2.009-16.133-3.1-24.227L 160.58,96.078 zM 181.189,84.137l-8.152,34.504c 0.058-7.061, 0.058-13.894, 0.058-20.955l0-13.549 l-3.789,0 l0,47.249 l 5.225,0 
		l 7.234-34.617c-0.058,6.487-0.058,12.745-0.058,19.117l0,15.5 l 3.846,0 l0-47.249 L 181.189,84.137 zM 189.685,84.137l0,47.249 l 7.349,0 c 4.995,0, 7.463-3.042, 7.463-8.095l0-31.116 c0-5.339-2.469-8.038-7.463-8.038
		L 189.685,84.137 z M 200.133,123.234c0,2.353-1.033,3.731-3.1,3.731l-2.985,0 l0-38.522 l 2.985,0 c 2.066,0, 3.1,1.263, 3.1,3.732L 200.133,123.234 zM 226.311,101.475l 3.961,0 l0-9.76 c0-5.512-2.066-8.096-6.889-8.096c-4.995,0-7.522,2.641-7.522,7.98l0,32.149 
		c0,5.454, 2.526,8.152, 7.522,8.152c 4.593,0, 6.889-2.699, 6.889-8.038l0-8.382 l-3.961,0 l0,8.325 c0,2.526-0.688,3.673-2.927,3.673
		c-2.067,0-3.1-1.206-3.1-3.673l0-32.149 c0-2.469, 1.033-3.731, 3.1-3.731c 2.124,0, 2.927,1.206, 2.927,3.731L 226.311,101.475 zM 233.601,123.865c0,5.283, 2.411,8.038, 7.406,8.038c 5.052,0, 7.464-2.756, 7.464-8.038l0-32.207 
		c0-5.283-2.411-8.038-7.464-8.038c-4.995,0-7.406,2.756-7.406,8.038L 233.601,123.865 z M 244.107,123.865c0,2.412-1.033,3.618-3.1,3.618
		c-2.009,0-3.043-1.206-3.043-3.618l0-32.207 c0-2.469, 1.033-3.731, 3.043-3.731c 2.066,0, 3.1,1.262, 3.1,3.731L 244.107,123.865 zM 252.374,84.137l0,47.249 l 7.349,0 c 4.995,0, 7.463-3.042, 7.463-8.095l0-31.116 c0-5.339-2.469-8.038-7.463-8.038
		L 252.374,84.137 z M 262.822,123.234c0,2.353-1.033,3.731-3.1,3.731l-2.985,0 l0-38.522 l 2.985,0 c 2.066,0, 3.1,1.263, 3.1,3.732L 262.822,123.234 zM 271.203,84.137l0,47.249 l 4.364,0 l0-47.249 L 271.203,84.137 zM 291.697,84.137l-8.152,34.504c 0.058-7.061, 0.058-13.894, 0.058-20.955l0-13.549 l-3.789,0 l0,47.249 l 5.225,0 
		l 7.234-34.617c-0.058,6.487-0.058,12.745-0.058,19.117l0,15.5 l 3.846,0 l0-47.249 L 291.697,84.137 zM 314.145,83.85l-1.435,2.584c-0.918-1.838-3.157-2.814-5.741-2.814c-4.076,0-7.119,2.010-7.119,8.038
		l0,32.149 c0,5.224, 2.469,8.095, 7.464,8.095c 5.052,0, 7.176-2.871, 7.176-8.095l0-8.325 l-3.904,0 l0,8.325 c0,2.469-0.918,3.673-3.272,3.673
		c-2.239,0-3.1-1.206-3.1-3.673l0-32.149 c0-2.469, 1.262-3.731, 3.043-3.731c 2.066,0, 3.215,1.149, 3.387,3.387L 310.642,102.049 l-3.618,0 l0,4.134 
		l 7.807,0 l0-22.333 L 314.145,83.851 zM 336.935,84.137l0,21.873 l-6.086,0 l0-21.873 l-4.364,0 l0,47.249 l 4.364,0 l0-21.069 l 6.086,0 l0,21.069 l 4.363,0 l0-47.249 L 336.935,84.137 zM 349.334,84.137l0,42.827 l-5.283,0 l0,4.421 l 14.87,0 l0-4.421 l-5.282,0 l0-42.827 L 349.334,84.137 zM 379.358,84.137l0,14.295 c0,6.89, 0.057,13.549, 0.115,20.438l-5.11-34.733l-3.846,0 l-5.053,34.733
		c 0.058-6.89, 0.115-13.549, 0.115-20.438l0-14.295 l-4.018,0 l0,47.249 l 5.856,0 l 4.995-36.915l 4.994,36.915l 6.029,0 l0-47.249 L 379.358,84.137 zM 387.566,84.137l0,47.249 l 4.364,0 l0-42.943 l 8.44,0 l0-4.306 L 387.566,84.137 zM 409.093,84.137l 9.875,47.249l 3.214,0 l-9.874-47.249L 409.093,84.137 zM 442.62,101.475l 3.961,0 l0-9.76 c0-5.512-2.066-8.096-6.89-8.096c-4.995,0-7.521,2.641-7.521,7.98l0,32.149 
		c0,5.454, 2.526,8.152, 7.521,8.152c 4.593,0, 6.89-2.699, 6.89-8.038l0-8.382 l-3.961,0 l0,8.325 c0,2.526-0.688,3.673-2.927,3.673
		c-2.066,0-3.1-1.206-3.1-3.673l0-32.149 c0-2.469, 1.033-3.731, 3.1-3.731c 2.125,0, 2.927,1.206, 2.927,3.731L 442.62,101.475 zM 460.013,98.144c0,2.871-0.344,3.445-1.435,4.881c-2.297,2.755-4.593,4.477-7.349,7.864
		c-1.55,1.78-1.55,3.445-1.55,6.142l0,7.061 c0,5.224, 2.468,7.807, 7.349,7.807c 5.282,0, 7.176-2.526, 7.176-7.807l0-8.612 l-4.075,0 
		l0,8.038 c0,2.353-0.632,3.961-2.986,3.961c-2.009,0-3.042-1.149-3.042-3.387l0-7.004 c0-2.009, 0.172-2.583, 1.033-3.673
		c 2.296-2.927, 4.708-4.765, 7.176-7.693c 1.666-2.010, 2.067-3.789, 2.067-7.521l0-6.775 c0-5.053-2.067-7.808-7.349-7.808
		c-5.11,0-7.349,2.756-7.349,7.808l0,10.047 l 4.191,0 l0-9.415 c0-2.469, 0.746-4.134, 3.043-4.134c 2.238,0, 3.1,1.206, 3.1,3.502L 460.013,98.144 z
		M 477.81,98.144c0,2.871-0.344,3.445-1.435,4.881c-2.297,2.755-4.593,4.477-7.349,7.864
		c-1.55,1.78-1.55,3.445-1.55,6.142l0,7.061 c0,5.224, 2.468,7.807, 7.349,7.807c 5.282,0, 7.176-2.526, 7.176-7.807l0-8.612 l-4.075,0 
		l0,8.038 c0,2.353-0.632,3.961-2.986,3.961c-2.009,0-3.042-1.149-3.042-3.387l0-7.004 c0-2.009, 0.172-2.583, 1.033-3.673
		c 2.296-2.927, 4.708-4.765, 7.176-7.693c 1.666-2.010, 2.067-3.789, 2.067-7.521l0-6.775 c0-5.053-2.067-7.808-7.349-7.808
		c-5.11,0-7.349,2.756-7.349,7.808l0,10.047 l 4.191,0 l0-9.415 c0-2.469, 0.746-4.134, 3.043-4.134c 2.238,0, 3.1,1.206, 3.1,3.502L 477.81,98.144 z
		M 491.875,84.137l 9.875,47.249l 3.214,0 l-9.874-47.249L 491.875,84.137 zM 513.747,88.557c 0.689-0.287, 1.607-0.403, 2.756-0.403c 1.895,0, 2.813,1.206, 2.813,3.673l0,39.556 l 4.363,0 
		l0-39.556 c0-5.569-2.526-8.037-7.176-8.037c-1.206,0-2.125,0.114-2.756,0.402L 513.746,88.557 zM 537.515,98.144c0,2.871-0.344,3.445-1.435,4.881c-2.297,2.755-4.593,4.477-7.349,7.864
		c-1.55,1.78-1.55,3.445-1.55,6.142l0,7.061 c0,5.224, 2.468,7.807, 7.349,7.807c 5.282,0, 7.176-2.526, 7.176-7.807l0-8.612 l-4.075,0 
		l0,8.038 c0,2.353-0.632,3.961-2.986,3.961c-2.009,0-3.042-1.149-3.042-3.387l0-7.004 c0-2.009, 0.172-2.583, 1.033-3.673
		c 2.296-2.927, 4.708-4.765, 7.176-7.693c 1.666-2.010, 2.067-3.789, 2.067-7.521l0-6.775 c0-5.053-2.067-7.808-7.349-7.808
		c-5.11,0-7.349,2.756-7.349,7.808l0,10.047 l 4.191,0 l0-9.415 c0-2.469, 0.746-4.134, 3.043-4.134c 2.238,0, 3.1,1.206, 3.1,3.502L 537.514,98.144 z
		M 315.845,14.286l0,5.712 c0,3.594, 0.265,5.145, 2.8,8.511c 3.367,4.464, 4.047,5.561, 4.047,8.512l0,3.328 
		c0,1.665-0.681,2.496-2.042,2.496c-1.551,0-1.967-0.87-1.967-2.534l0-5.371 l-2.838,0 l0,5.371 c0,3.82, 1.513,5.447, 4.804,5.447
		c 3.329,0, 4.918-1.702, 4.918-5.447l0-3.481 c0-3.404-1.211-5.636-3.443-8.586c-3.139-3.933-3.404-5.106-3.404-8.247l0-2.874 l 6.847,0 l0-2.838 
		L 315.845,14.285 zM 327.683,40.461c0,3.481, 1.551,5.296, 5.031,5.296c 3.481,0, 5.031-1.816, 5.031-5.296l0-21.222 
		c0-3.481-1.551-5.296-5.031-5.296c-3.48,0-5.031,1.816-5.031,5.296L 327.683,40.461 z M 334.907,40.499c0,1.627-0.719,2.421-2.194,2.421
		c-1.437,0-2.156-0.794-2.156-2.421l0-21.334 c0-1.627, 0.719-2.421, 2.156-2.421c 1.475,0, 2.194,0.794, 2.194,2.421L 334.907,40.499 zM 340.088,40.461c0,3.481, 1.551,5.296, 5.031,5.296c 3.48,0, 5.031-1.816, 5.031-5.296l0-21.222 
		c0-3.481-1.551-5.296-5.031-5.296c-3.481,0-5.031,1.816-5.031,5.296L 340.088,40.461 z M 347.312,40.499c0,1.627-0.719,2.421-2.193,2.421
		c-1.437,0-2.156-0.794-2.156-2.421l0-21.334 c0-1.627, 0.719-2.421, 2.156-2.421c 1.475,0, 2.193,0.794, 2.193,2.421L 347.312,40.499 zM 352.493,40.461c0,3.329, 1.588,5.296, 4.88,5.296c 3.329,0, 4.728-1.967, 4.728-5.296l0-5.371 l-2.761,0 l0,5.371 
		c0,1.514-0.605,2.383-1.968,2.383c-1.323,0-2.006-0.87-2.006-2.383l0-8.208 c 0.491,0.908, 1.399,1.588, 3.026,1.588
		c 2.686,0, 3.896-1.437, 3.896-4.956l0-9.646 c0-3.328-1.588-5.296-4.918-5.296c-3.291,0-4.88,1.968-4.88,5.259L 352.493,40.461 z
		 M 359.415,28.243c0,1.929-0.567,2.838-2.042,2.838c-1.211,0-1.891-0.681-2.006-1.854l0-9.306 c0-1.967, 0.453-3.139, 2.006-3.139
		c 1.475,0, 2.042,0.909, 2.042,2.458L 359.415,28.243 zM 438.577,342.116c-0.126-0.645-0.441-1.302-0.947-1.971c-0.506-0.667-1.099-1.224-1.78-1.675
			c-0.681-0.447-1.294-0.673-1.843-0.673c-0.801,0-1.594,0.434-2.379,1.305c-1.854-1.152-3.365-1.727-4.53-1.727
			c-0.407,0-0.783,0.095-1.127,0.284c-0.344,0.19-0.726,0.537-1.149,1.043c-1.783-0.885-3.25-1.326-4.401-1.326
			c-0.577,0-1.052,0.108-1.422,0.327c-0.373,0.217-0.805,0.663-1.295,1.337c-0.49,0.672-1.215,1.783-2.168,3.328
			c-0.577,0.968-1.089,1.657-1.538,2.063c-0.448,0.408-0.913,0.611-1.391,0.611c-0.447,0-0.813-0.155-1.095-0.463
			c-0.281-0.309-0.42-0.716-0.42-1.221c0-0.324, 0.090-0.638, 0.274-0.947c-0.296-0.449-0.569-0.822-0.822-1.116
			c-1.236-0.126-2.218-0.19-2.949-0.19c-0.126,0-0.241,0.003-0.348,0.010c-0.105,0.006-0.25,0.010-0.431,0.010l-5.328,0 
			c-2.429,0-4.378-0.056-5.845-0.168c-1.466-0.112-3.134-0.344-5.001-0.695l-0.254,0.484c 0.254,0.422, 0.474,0.745, 0.663,0.969
			c 0.189,0.225, 0.544,0.561, 1.064,1.012c 0.997,0.084, 1.817,0.126, 2.464,0.126c 0.534,0, 2.527-0.095, 5.981-0.283
			c 3.455-0.19, 5.561-0.286, 6.32-0.286c 1.054,0, 1.897,0.028, 2.526,0.084c 0.044,0.716, 0.191,1.28, 0.443,1.695
			s 0.695,0.832, 1.328,1.254c 1.416,0.997, 2.527,1.495, 3.328,1.495c 0.42,0, 0.83-0.155, 1.231-0.464c 0.401-0.309, 0.867-0.857, 1.401-1.644
			c 1.656,1.53, 3.026,2.297, 4.105,2.297c 0.436,0, 0.833-0.126, 1.192-0.379c 0.357-0.252, 0.775-0.737, 1.253-1.452
			c 0.969,0.799, 1.737,1.355, 2.305,1.663c 0.569,0.31, 1.086,0.462, 1.55,0.462c 0.547,0, 0.969-0.061, 1.262-0.188
			c 0.296-0.126, 0.681-0.503, 1.16-1.127c 0.477-0.626, 1.129-1.612, 1.959-2.959c 0.828-1.348, 1.501-2.282, 2.022-2.802
			c 0.519-0.519, 1.011-0.779, 1.474-0.779c 0.393,0, 0.723,0.168, 0.99,0.504c 0.267,0.337, 0.401,0.731, 0.401,1.18
			c0,0.393-0.134,0.751-0.401,1.075c 0.281,0.406, 0.618,0.793, 1.011,1.158c 0.31,0.042, 2.176,0.064, 5.604,0.064
			c 4.732,0, 7.996,0.066, 9.795,0.2c 1.796,0.133, 3.517,0.438, 5.16,0.916l 0.233-0.358c-0.379-0.872-0.842-1.602-1.391-2.191
			c-0.505-0.055-1.054-0.105-1.643-0.147s-1.292-0.064-2.106-0.064c-1.054,0-1.798,0.007-2.233,0.022
			c-0.435,0.015-1.358,0.056-2.77,0.126c-1.411,0.071-2.159,0.106-2.242,0.106c-1.854,0.083-3.567,0.126-5.14,0.126
			C 439.588,342.158, 438.886,342.145, 438.577,342.116z M 424.507,339.231c-0.294,0.35-0.589,0.748-0.883,1.19
			c-0.296,0.441-0.688,1.046-1.181,1.812c-0.491,0.766-0.794,1.231-0.905,1.4c-0.647,0.969-1.383,1.454-2.211,1.454
			c-0.435,0-1.068-0.275-1.896-0.822c 0.028-0.042, 0.463-0.73, 1.306-2.063c 0.715-1.152, 1.245-1.949, 1.59-2.39
			c 0.343-0.441, 0.667-0.752, 0.969-0.927c 0.302-0.176, 0.67-0.263, 1.106-0.263C 423.006,338.621, 423.707,338.822, 424.507,339.231z
			 M 423.96,344.875c 0.141-0.182, 0.787-1.187, 1.939-3.011c 0.519-0.829, 0.949-1.451, 1.284-1.865c 0.338-0.415, 0.645-0.712, 0.927-0.896
			c 0.282-0.183, 0.59-0.274, 0.928-0.274c 0.337,0, 1.101,0.203, 2.295,0.611c-0.743,0.884-1.84,2.45-3.285,4.695
			c-0.351,0.577-0.669,0.967-0.959,1.171c-0.287,0.202-0.641,0.305-1.064,0.305C 425.548,345.612, 424.859,345.366, 423.96,344.875zM 265.596,342.116c-0.126-0.645-0.442-1.302-0.948-1.971c-0.505-0.667-1.099-1.224-1.78-1.675
			c-0.681-0.447-1.294-0.673-1.843-0.673c-0.8,0-1.594,0.434-2.379,1.305c-1.854-1.152-3.365-1.727-4.529-1.727
			c-0.407,0-0.783,0.095-1.127,0.284c-0.344,0.19-0.726,0.537-1.148,1.043c-1.785-0.885-3.251-1.326-4.403-1.326
			c-0.576,0-1.051,0.108-1.422,0.327c-0.373,0.217-0.804,0.663-1.295,1.337c-0.491,0.672-1.215,1.783-2.168,3.328
			c-0.576,0.968-1.089,1.657-1.538,2.063c-0.449,0.408-0.913,0.611-1.391,0.611c-0.448,0-0.814-0.155-1.095-0.463
			c-0.281-0.309-0.42-0.716-0.42-1.221c0-0.324, 0.090-0.638, 0.274-0.947c-0.295-0.449-0.568-0.822-0.822-1.116
			c-1.236-0.126-2.218-0.19-2.949-0.19c-0.126,0-0.242,0.003-0.348,0.010c-0.105,0.006-0.25,0.010-0.431,0.010l-5.328,0 
			c-2.429,0-4.377-0.056-5.845-0.168c-1.467-0.112-3.135-0.344-5.002-0.695l-0.253,0.484c 0.253,0.422, 0.473,0.745, 0.663,0.969
			c 0.19,0.225, 0.543,0.561, 1.064,1.012c 0.997,0.084, 1.818,0.126, 2.464,0.126c 0.533,0, 2.527-0.095, 5.981-0.283
			c 3.455-0.19, 5.561-0.286, 6.319-0.286c 1.053,0, 1.897,0.028, 2.527,0.084c 0.042,0.716, 0.189,1.28, 0.441,1.695
			c 0.254,0.414, 0.695,0.832, 1.327,1.254c 1.418,0.997, 2.528,1.495, 3.328,1.495c 0.42,0, 0.832-0.155, 1.231-0.464
			c 0.401-0.309, 0.867-0.857, 1.4-1.644c 1.656,1.53, 3.026,2.297, 4.106,2.297c 0.435,0, 0.832-0.126, 1.191-0.379
			c 0.359-0.252, 0.776-0.737, 1.253-1.452c 0.969,0.799, 1.738,1.355, 2.306,1.663c 0.569,0.31, 1.085,0.462, 1.548,0.462
			c 0.547,0, 0.97-0.061, 1.264-0.188c 0.295-0.126, 0.681-0.503, 1.158-1.127c 0.477-0.626, 1.13-1.612, 1.959-2.959
			c 0.828-1.348, 1.502-2.282, 2.022-2.802s 1.011-0.779, 1.475-0.779c 0.393,0, 0.723,0.168, 0.99,0.504
			c 0.267,0.337, 0.401,0.731, 0.401,1.18c0,0.393-0.134,0.751-0.401,1.075c 0.281,0.406, 0.619,0.793, 1.011,1.158
			c 0.309,0.042, 2.176,0.064, 5.603,0.064c 4.732,0, 7.997,0.066, 9.794,0.2c 1.797,0.133, 3.517,0.438, 5.16,0.916l 0.231-0.358
			c-0.379-0.872-0.842-1.602-1.39-2.191c-0.505-0.055-1.053-0.105-1.644-0.147c-0.589-0.042-1.292-0.064-2.106-0.064
			c-1.054,0-1.798,0.007-2.233,0.022c-0.435,0.015-1.358,0.056-2.77,0.126c-1.411,0.071-2.159,0.106-2.243,0.106
			c-1.854,0.083-3.568,0.126-5.14,0.126C 266.607,342.158, 265.905,342.145, 265.596,342.116z M 251.527,339.231
			c-0.295,0.35-0.589,0.748-0.885,1.19c-0.295,0.441-0.688,1.046-1.18,1.812c-0.491,0.766-0.793,1.231-0.905,1.4
			c-0.646,0.969-1.383,1.454-2.211,1.454c-0.435,0-1.068-0.275-1.896-0.822c 0.028-0.042, 0.463-0.73, 1.305-2.063
			c 0.716-1.152, 1.245-1.949, 1.59-2.39c 0.344-0.441, 0.667-0.752, 0.97-0.927c 0.302-0.176, 0.669-0.263, 1.106-0.263
			C 250.025,338.621, 250.727,338.822, 251.527,339.231z M 250.979,344.875c 0.14-0.182, 0.787-1.187, 1.939-3.011
			c 0.519-0.829, 0.948-1.451, 1.284-1.865c 0.338-0.415, 0.645-0.712, 0.928-0.896c 0.281-0.183, 0.589-0.274, 0.927-0.274
			c 0.336,0, 1.102,0.203, 2.295,0.611c-0.744,0.884-1.841,2.45-3.285,4.695c-0.352,0.577-0.67,0.967-0.959,1.171
			c-0.287,0.202-0.642,0.305-1.064,0.305C 252.566,345.612, 251.878,345.366, 250.979,344.875zM 326.659,60.64c0,1.126-0.166,1.35-0.69,1.914c-1.105,1.081-2.208,1.756-3.534,3.084
		c-0.745,0.698-0.745,1.349-0.745,2.409l0,2.769 c0,2.047, 1.187,3.061, 3.534,3.061c 2.54,0, 3.451-0.99, 3.451-3.061l0-3.377 l-1.961,0 
		l0,3.15 c0,0.923-0.304,1.553-1.435,1.553c-0.967,0-1.464-0.449-1.464-1.327l0-2.747 c0-0.787, 0.083-1.013, 0.497-1.44
		c 1.105-1.148, 2.264-1.868, 3.451-3.015c 0.801-0.788, 0.994-1.486, 0.994-2.949l0-2.656 c0-1.981-0.994-3.061-3.534-3.061
		c-2.457,0-3.534,1.081-3.534,3.061l0,3.939 l 2.016,0 l0-3.691 c0-0.968, 0.359-1.62, 1.464-1.62c 1.076,0, 1.49,0.472, 1.49,1.373L 326.659,60.64 zM 330.581,55.148l0,18.524 l 2.098,0 l0-18.524 L 330.581,55.148 zM 340.438,55.148l-3.92,13.526c 0.028-2.769, 0.028-5.446, 0.028-8.215l0-5.312 l-1.823,0 l0,18.524 l 2.513,0 l 3.479-13.572
		c-0.028,2.544-0.028,4.996-0.028,7.495l0,6.078 l 1.85,0 l0-18.524 L 340.438,55.148 zM 349.385,61.946l 1.905,0 l0-3.826 c0-2.161-0.994-3.173-3.313-3.173c-2.402,0-3.618,1.035-3.618,3.129l0,12.604 
		c0,2.137, 1.216,3.196, 3.618,3.196c 2.208,0, 3.313-1.058, 3.313-3.151l0-3.285 l-1.905,0 l0,3.263 c0,0.99-0.331,1.44-1.408,1.44
		c-0.995,0-1.491-0.472-1.491-1.44l0-12.604 c0-0.967, 0.497-1.462, 1.491-1.462c 1.021,0, 1.408,0.472, 1.408,1.462L 349.385,61.946 zM 353.059,55.148l0,18.524 l 6.019,0 l0-1.734 l-3.92,0 l0-6.505 l 2.761,0 l0-1.71 l-2.761,0 l0-6.888 l 4.059,0 l0-1.688 L 353.059,55.148 zM 112.065,153.868L 570.559,153.868L 570.559,149.035L 112.065,149.035zM 112.065,159.909L 570.559,159.909L 570.559,155.681L 112.065,155.681zM 353.717,333.654c-1.782-6.745-4.185-12.446-5.045-14.174c-1.888-3.885-6.796-10.344-19.175-10.635
			c-21.445,0.486-20.264,15.992-20.264,15.992c 0.209,4.952, 3.815,9.524, 3.815,12.72c0,1.755-1.909,3.385-7.36,3.385l-1.567,0 
			l 1.431,5.453l 1.841,0 c 3.68,0, 5.997,0.501, 7.496,1.943c 4.702,4.326, 1.091,13.915, 7.019,19.368c 3.747,3.385, 9.949,3.949, 16.763,3.636
			l-1.226-4.701c-3.68-0.063-5.793-0.501-7.155-1.755c-3.815-3.448-1.909-13.289-7.019-18.053c-2.384-2.131-5.656-2.758-10.086-3.134
			l-0.068-0.501c 5.861-0.878, 8.927-2.508, 8.927-5.955c0-3.321-3.2-8.959-3.203-12.031c0,0-1.979-11.353, 10.657-11.468
			c 5.147-0.008, 7.831,3.639, 9.224,5.734c 4.508,7.548, 9.391,31.106, 9.391,31.106c 0.542,2.318, 1.153,4.403, 1.153,4.403
			c 2.833,9.912, 8.847,14.724, 17.492,14.336c 6.739-0.303, 10.083-3.339, 9.928-6.783c-0.121-2.693-2.142-5.175-5.546-5.022
			c-2.656,0.12-4.494,1.707-4.387,4.087c 0.061,1.377, 0.809,2.849, 2.074,3.671c-0.465,0.272-1.138,0.49-1.886,0.523
			c-4.697,0.211-5.606-3.325-7.479-10.080l-0.326-1.178C 359.137,354.545, 356.098,342.67, 353.717,333.654zM 361.919,342.224L 339.961,342.224L 341.233,347.634L 363.381,347.634 		z" horiz-adv-x="723.684" data-tags="intro-text" />
<glyph unicode="&#x20;" horiz-adv-x="256" />
</font>
</defs>
</svg>
